<svg xmlns="http://www.w3.org/2000/svg" width="1363.88" height="635.562" viewBox="0 0 1363.88 635.562">
  <defs>
    <style>
      .cls-1 {
        fill: #edeff0;
        fill-rule: evenodd;
      }
    </style>
  </defs>
  <path class="cls-1" d="M538.706,1016.53a118.616,118.616,0,1,1-133.58,101.48A118.533,118.533,0,0,1,538.706,1016.53Zm449.51-125.351L958.205,1111.17l177.025,24.1q99.18,13.5,144.75,8.33c39.77-4.33,73.88-16.34,102.39-35.77q42.66-29.265,77.47-104.89,31.14-67.312,49.19-183.076L1676,797l82.38-232.552q19.785,114.041-1.62,270.639-19.755,144.961-70.12,244.983-61.41,121.95-154.01,190.19-69.8,51.66-179.27,70.88-81.81,14.25-213.13-3.75L694.3,1276.52l47.967-351.662Z" transform="translate(-404 -564.438)"/>
</svg>
